# xmcd
#
# Track frame offsets:
#	150
#	4094
#	18644
#	31546
#	48272
#	65210
#	80996
#	99736
#	114718
#	130179
#	144623
#	158953
#	173638
#	191212
#	204073
#	221587
#	239547
#
# Disc length: 3383 seconds
#
# Revision: 0
# Processed by: cddbd v1.5.2PL0 Copyright (c) Steve Scherf et al.
# Submitted via: EasyCDDAExtractor 8.1.2.3
#
DISCID=f30d3511
DTITLE=50 Cent - Curtis
DYEAR=2007
DGENRE=Rap US
TTITLE0=Intro
TTITLE1=My Gun Go Off
TTITLE2=Man Down
TTITLE3=ll Still Kill
TTITLE4=I Get Money
TTITLE5=Come and Go
TTITLE6=Ayo Technology
TTITLE7=Follow My Lead
TTITLE8=Movin On Up
TTITLE9=Straight To The Bank
TTITLE10=Amusement Park
TTITLE11=Fully Loaded Clip
TTITLE12=Peep Show
TTITLE13=Fire
TTITLE14=All Of Me
TTITLE15=Curtis 187
TTITLE16=Touch The Sky
EXTD=
EXTT0=
EXTT1=
EXTT2=
EXTT3=
EXTT4=
EXTT5=
EXTT6=
EXTT7=
EXTT8=
EXTT9=
EXTT10=
EXTT11=
EXTT12=
EXTT13=
EXTT14=
EXTT15=
EXTT16=
PLAYORDER=
